/* XPM */
static char *_583917397513[] = {
/* columns rows colors chars-per-pixel */
"32 32 21 1 ",
"  c #E1BB2D",
". c #E2BD2F",
"X c #E3BE30",
"o c #E3BF31",
"O c #E4C132",
"+ c #E5C333",
"@ c #E5C334",
"# c #E5C434",
"$ c #E5C435",
"% c #E6C535",
"& c #E7C737",
"* c #E7C837",
"= c #E7C838",
"- c #E9CB3A",
"; c #E9CC3B",
": c #E9CD3B",
"> c #EACF3D",
", c #EBD13F",
"< c #ECD441",
"1 c #EED744",
"2 c #EFDB47",
/* pixels */
"==%O=;=>=%%XX==O%O@$=%%%=%%**$O+",
"%%=%O<%O==%%%%%%% %@=%@O$%$.=2%+",
"X@%=%%X%%O=%%%=O=%@@%%@%%%%%%==%",
"%%%=%>%=%O=%%<%1==%=O%%%=$$$;%%%",
"<%-,%%%%%%%=>%%%=%%%@ %==%%=%%%%",
" >%=%%==-%%%@@%%>=O%%=2%=%.%%%O%",
"@%%=%=== %>%,%==@%>=%%%O==@%=%<@",
"O<%>2%=%=%%==%%%%=1O======<%%%%%",
"%%=%$X%=%;%%%=X%%.%%O%===>%%%OO%",
"=%==%%%=<.%%>1=%%%O,%%==%O%%%==%",
"2%=%$==%%%%O%%X=%O %%%%%%%<%%O%=",
"O%%%%$==$=%%>%=%%*===%% %%%=%%,$",
"%=%%=%%=%%>%%%==%*%.%,O*$O%O%%%X",
"2%=%% %%==%%<$==O%$=%%+%=$O%,%O=",
"%-%%;>$O<%%%%=%@%;=,;%=*%%%%$*$=",
"%<%%XX$%%%,%=%%=%%=O*$$$%*$%;$%=",
"==%%%==<=X==O%@ =%%%#%%%=%*=%=$%",
"%2=$O<=;%%>%%%%<O%*$*<**=2;O%%%%",
"% %*%%%$=*=%%%%@%%*%%%%$%$%%%,OO",
"=$*==O%,=O==%%=O%>%=$O$$%,%2%<%$",
"O%;,**%%%%=%==%==%%,$%$%===O% %%",
"*X%$=%%%=%%2@%%>=;$%**O%-%%%=:%$",
"<%%>%=%=%%%%%===%%%.%==O%=>$=%%>",
"%O$$2>====%%@%%%%==%;%%%%=%%%%%%",
"%.=%%O*O,O%%>%%=.>%=%>>=%%%%%%@>",
"=%==%%,%%=$%<%O%=%<==%O%==X@=,%%",
"*%=%OOO$%=%O%%*==%@%%==%%->%%%X%",
"=O%*%%%$ %=%;%$%O;>%%==%%%@%2%=%",
"%*=*=;=%$;%*%%%%@%==+%;*.=*%@%=%",
"O%;%%=O;:O%%<%%%%%==O.%%%=;=@%%-",
"%;*$#*=*O=%%$%*<$=%%%$%;%%OX%%%@",
"%*%+,*%%%X$2%=%%%>%$%.$%%*==;=%="
};
