/* XPM */
static char *_587417410581[] = {
/* columns rows colors chars-per-pixel */
"128 128 37 1 ",
"  c #2F2F2F",
". c #393939",
"X c #3F3F3F",
"o c #434343",
"O c gray29",
"+ c #505050",
"@ c gray32",
"# c gray35",
"$ c #5F5F5F",
"% c gray40",
"& c #686868",
"* c DimGray",
"= c gray42",
"- c #717171",
"; c gray45",
": c gray47",
"> c #7C7C7C",
", c #980088",
"< c gray51",
"1 c #898989",
"2 c #8E8E8E",
"3 c gray59",
"4 c #9B9B9B",
"5 c gray64",
"6 c #AAAAAA",
"7 c gray69",
"8 c gray71",
"9 c #B7B7B7",
"0 c gray",
"q c #C6C6C6",
"w c #CDCDCD",
"e c LightGray",
"r c gray84",
"t c gainsboro",
"y c #E1E1E1",
"u c gray90",
"i c #EAEAEA",
/* pixels */
",,,,,,,,,,,,,,,,,,,,,,,,,,,,,,,,,<<<<<<<<<<<<>>::::::::::;-==%%%%%%%%##O@,,,,,,,,,,,,,,,,,,,,,,,,,,,,,,,,,,,,,,,,,,,,,,,,,,,,,,,",
",,,,,,,,,,,,,,,,,,,,,,,,,,,,,,<<<<<<<<<<<<<<<>>::::::::::;-==%%%%%%%%$##@XXX,,,,,,,,,,,,,,,,,,,,,,,,,,,,,,,,,,,,,,,,,,,,,,,,,,,,",
",,,,,,,,,,,,,,,,,,,,,,,,,,,1111334444333322111111<<<<>>>>::;-==%%%%%%$$#+OXXXX,,,,,,,,,,,,,,,,,,,,,,,,,,,,,,,,,,,,,,,,,,,,,,,,,,",
",,,,,,,,,,,,,,,,,,,,,,,,,<<1111334444333322111111<<<<>>>:::;-==%%%%%%$$#+OoXXXXX,,,,,,,,,,,,,,,,,,,,,,,,,,,,,,,,,,,,,,,,,,,,,,,,",
",,,,,,,,,,,,,,,,,,,,,,,<25566777777555555443333221111<<<<>>::--==%%%%%$#+OoXXXX...,,,,,,,,,,,,,,,,,,,,,,,,,,,,,,,,,,,,,,,,,,,,,,",
",,,,,,,,,,,,,,,,,,,,,,<225566777777555555443333221111<<<<>>::--==%%%%%$#+OoXXXX....X,,,,,,,,,,,,,,,,,,,,,,,,,,,,,,,,,,,,,,,,,,,,",
",,,,,,,,,,,,,,,,,,,,,8899999999999977665555443322111111<<>:::--==%%%%%$#+OoXX........,,,,,,,,,,,,,,,,,,,,,,,,,,,,,,,,,,,,,,,,,,,",
",,,,,,,,,,,,,,,,,,,,88889999999999977665555443322111111<<>>::--==%%%%%$#+OoXX........X,,,,,,,,,,,,,,,,,,,,,,,,,,,,,,,,,,,,,,,,,,",
",,,,,,,,,,,,,,,,,,,55777777777777777777554433221111<<<<>>::;-==%%$$%%$$#+OoXX........XX,,,,,,,,,,,,,,,,,,,,,,,,,,,,,,,,,,,,,,,,,",
",,,,,,,,,,,,,,,,,,,55777777777777777777554433221111<<<<>>::;-==%%$$$$$##+ooXX........XX,,,,,,,,,,,,,,,,,,,,,,,,,,,,,,,,,,,,,,,,,",
",,,,,,,,,,,,,,,,,,,55666666666666666666554433221111<<<<>>>:;-==%%$$#$#++oXX..........XX,,,,,,,,,,,,,,,,,,,,,,,,,,,,,,,,,,,,,,,,,",
",,,,,,,,,,,,,,,,,,,54555555555555555555444433221111<<<<>>>:;;==%%$$##++ooXX..........XX,,,,,,,,,,,,,,,,,,,,,,,,,,,,,,,,,,,,,,,,,",
",,,,,,,,,,,,,,,,,,,22334444444444444444554444443222111<<<<>;;==&%$$O+OoXX....XXXXX...XX,,,,,,,,,,,,,,,,,,,,,,,,,,,,,,,,,,,,,,,,,",
",,,,,,,,,,,,,,,,,,,,23344444444444444444444556654332211<<<>:-====%%#+OOXX...XXoooooX.XX,,,,,,,,,,,,,,,,,,,,,,,,,,,,,,,,,,,,,,,,,",
",,,,,,,,,,,,,,,,,,,,1222233333333334334455560997766442211<>::---;=%%$##OXX.XXoooooooXX,,,,,,,,,,,,,,,,,,,,,,,,,,,,,,,,,,,,,,,,,,",
",,,,,,,,,,,,,,,,,,,,,222233333333322222556900997766442211<>::----==%%$##OoXXoooooooOoX,,,,,,,,,,,,,,,,,,,,,,,,,,,,,,,,,,,,,,,,,,",
",,,,,,,,,,,,,,,,,,,,,,:><112222231122245579qq997765432111<>::----==%%%$#+OOooooOOOOoX,,,,,,,,,,,,,,,,,,,,,,,,,,,,,,,,,,,,,,,,,,,",
",,,,,,,,,,,,,,,,,,,,,,,;;<122221<<122246579qq997765431111<>:::---==%%%$#+OO#OoOO+OoX,,,,,,,,,,,,,,,,,,,,,,,,,,,,,,,,,,,,,,,,,,,,",
",,,,,,,,,,,,,,,,,,,,,,,,%;<1111::<12255679900766554331111<>::::--==%%%$#+++#+O++OoX,,,,,,,,,,,,,,,,,,,,,,,,,,,,,,,,,,,,,,,,,,,,,",
",,,,,,,,,,,,,,,,,,,,,,,,,%=<11::<112255679900766554331111<:::::;-==%%%$#+++$#O+OoX,,,,,,,,,,,,,,,,,,,,,,,,,,,,,,,,,,,,,,,,,,,,,,",
",,,,,,,,,,,,,,,,,,,,,,,,,,%=;::<<222455677977666554221111<>>>>::-==%%%$##++$$OOoX,,,,,,,,,,,,,,,,,,,,,,,,,,,,,,,,,,,,,,,,,,,,,,,",
",,,,,,,,,,,,,,,,,,,,,,,,,,,=;><<<222555656677666555332211<<>>>:;-==%%%$##++%=OOo,,,,,,,,,,,,,,,,,,,,,,,,,,,,,,,,,,,,,,,,,,,,,,,,",
",,,,,,,,,,,,,,,,,,,,,,,,,,,,%><<<22455565667766656644322211<<<:::--=&%%$#++$%oX,,,,,,,,,,,,,,,,,,,,,,,,,,,,,,,,,,,,,,,,,,,,,,,,,",
",,,,,,,,,,,,,,,,,,,,,,,,,,,,,><<122455565667777797665432222<<<>>:--==%%$#+O#$X,,,,,,,,,,,,,,,,,,,,,,,,,,,,,,,,,,,,,,,,,,,,,,,,,,",
",,,,,,,,,,,,,,,,,,,,,,,,,,,,,4422223455679000076565542211<<<<>>>>;-==%%$#+O+#,,,,,,,,,,,,,,,,,,,,,,,,,,,,,,,,,,,,,,,,,,,,,,,,,,,",
",,,,,,,,,,,,,,,,,,,,,,,,,,,,,4444443355679000087766653311<<<>>:::;=&%$###Ooo+,,,,,,,,,,,,,,,,,,,,,,,,,,,,,,,,,,,,,,,,,,,,,,,,,,,",
",,,,,,,,,,,,,,,,,,,,,,,,,,,,,<<<<112244667799777766443322<<::::;;%%$$##O+oXXo,,,,,,,,,,,,,,,,,,,,,,,,,,,,,,,,,,,,,,,,,,,,,,,,,,,",
",,,,,,,,,,,,,,,,,,,,,,,,,,,,,O>>><<1122555577555555331111>:====&%$$++++oooXXo,,,,,,,,,,,,,,,,,,,,,,,,,,,,,,,,,,,,,,,,,,,,,,,,,,,",
",,,,,,,,,,,,,,,,,,,,,,,,,,,,,,+###%=-;;>><<<<<<>>::;;==%&$$$$####O+OOooX.. ,,,,,,,,,,,,,,,,,,,,,,,,,,,,,,,,,,,,,,,,,,,,,,,,,,,,,",
",,,,,,,,,,,,,,,,,,,,,,,,,,,,,,+$:<<112244555555443311<<>:;;==%%%&##@+ooX.. ,,,,,,,,,,,,,,,,,,,,,,,,,,,,,,,,,,,,,,,,,,,,,,,,,,,,,",
",,,,,,,,,,,,,,,,,,,,,,,,,,,,,33224470qertiiiiiitrewq0874422<<<<>>::==%%$%%%==,,,,,,,,,,,,,,,,,,,,,,,,,,,,,,,,,,,,,,,,,,,,,,,,,,,",
",,,,,,,,,,,,,,,,,,,,,,,,,,,,,<<2344560qetyyyyytrewq09754422<<<<>>::==%%$%%%%#,,,,,,,,,,,,,,,,,,,,,,,,,,,,,,,,,,,,,,,,,,,,,,,,,,,",
",,,,,,,,,,,,,,,,,,,,,,,,,,,,,<<<1225555556677665677652211<<>>::;-==%%$$$$##%=,,,,,,,,,,,,,,,,,,,,,,,,,,,,,,,,,,,,,,,,,,,,,,,,,,,",
",,,,,,,,,,,,,,,,,,,,,,,,,,,,,<<<122455555667766567766532211<<>:::--==%%$#++$%,,,,,,,,,,,,,,,,,,,,,,,,,,,,,,,,,,,,,,,,,,,,,,,,,,,",
",,,,,,,,,,,,,,,,,,,,,,,,,,,,,4422223455679000076565542211<<<<>>>:;-==%%$#+O+#,,,,,,,,,,,,,,,,,,,,,,,,,,,,,,,,,,,,,,,,,,,,,,,,,,,",
",,,,,,,,,,,,,,,,,,,,,,,,,,,,,4444443355679000097766653311<<<>>:::;==%$###Ooo+,,,,,,,,,,,,,,,,,,,,,,,,,,,,,,,,,,,,,,,,,,,,,,,,,,,",
",,,,,,,,,,,,,,,,,,,,,,,,,,,,,<<<<112244667799777766443322<<::::;-%%$$##O+oXXo,,,,,,,,,,,,,,,,,,,,,,,,,,,,,,,,,,,,,,,,,,,,,,,,,,,",
",,,,,,,,,,,,,,,,,,,,,,,,,,,,,O>>><<1122555577555555331111>:====%%$%O+++oooXXo,,,,,,,,,,,,,,,,,,,,,,,,,,,,,,,,,,,,,,,,,,,,,,,,,,,",
",,,,,,,,,,,,,,,,,,,,,,,,,,,,,,+###%;---:><<<<<<>:::-;==&&$$$$####+OOOooX.. ,,,,,,,,,,,,,,,,,,,,,,,,,,,,,,,,,,,,,,,,,,,,,,,,,,,,,",
",,,,,,,,,,,,,,,,,,,,,,,,,,,,,,+$:<<112244555555443311<<>>;-==&%%%##@+ooX.. ,,,,,,,,,,,,,,,,,,,,,,,,,,,,,,,,,,,,,,,,,,,,,,,,,,,,,",
",,,,,,,,,,,,,,,,,,,,,,,,,,,,,33224470qertiiiiiitrewq0874422<<<<>>::==%%$%%%==,,,,,,,,,,,,,,,,,,,,,,,,,,,,,,,,,,,,,,,,,,,,,,,,,,,",
",,,,,,,,,,,,,,,,,,,,,,,,,,,,,<<2244570qetyyyyytrewq09754422<<<<>>::==%%$%%%%#,,,,,,,,,,,,,,,,,,,,,,,,,,,,,,,,,,,,,,,,,,,,,,,,,,,",
",,,,,,,,,,,,,,,,,,,,,,,,,,,,,<<<1225555556677665677652211<<>>::;;==%%$$$$##%=,,,,,,,,,,,,,,,,,,,,,,,,,,,,,,,,,,,,,,,,,,,,,,,,,,,",
",,,,,,,,,,,,,,,,,,,,,,,,,,,,,<<<122455555667766567766532211<<>:::--==%%$#++$%,,,,,,,,,,,,,,,,,,,,,,,,,,,,,,,,,,,,,,,,,,,,,,,,,,,",
",,,,,,,,,,,,,,,,,,,,,,,,,,,,,<<<<112344556677665554321111<>>:::::--=%%$#+OoO%,,,,,,,,,,,,,,,,,,,,,,,,,,,,,,,,,,,,,,,,,,,,,,,,,,,",
",,,,,,,,,,,,,,,,,,,,,,,,,,,,,<<11112344556677765565432111<<<<>>::-=&%$##+OoO+,,,,,,,,,,,,,,,,,,,,,,,,,,,,,,,,,,,,,,,,,,,,,,,,,,,",
",,,,,,,,,,,,,,,,,,,,,,,,,,,,,111122334455667799776655331111<<>:--===&$#OOoooO,,,,,,,,,,,,,,,,,,,,,,,,,,,,,,,,,,,,,,,,,,,,,,,,,,,",
",,,,,,,,,,,,,,,,,,,,,,,,,,,,,111122344465799099777765442211<::-==&%%$#@OOoooO,,,,,,,,,,,,,,,,,,,,,,,,,,,,,,,,,,,,,,,,,,,,,,,,,,,",
",,,,,,,,,,,,,,,,,,,,,,,,,,,,,1111223454679990997766542211<>>:;===&%%#++Oooooo,,,,,,,,,,,,,,,,,,,,,,,,,,,,,,,,,,,,,,,,,,,,,,,,,,,",
",,,,,,,,,,,,,,,,,,,,,,,,,,,,,11123355677799009755542211<<>:;===&%$$#+++Ooooo+,,,,,,,,,,,,,,,,,,,,,,,,,,,,,,,,,,,,,,,,,,,,,,,,,,,",
",,,,,,,,,,,,,,,,,,,,,,,,,,,,,22224455677799009655542211<<>:-==%$####++++ooo+%,,,,,,,,,,,,,,,,,,,,,,,,,,,,,,,,,,,,,,,,,,,,,,,,,,,",
",,,,,,,,,,,,,,,,,,,,,,,,,,,,,33434455667799009665542211<>::-%%$$##$##+++oo+$:,,,,,,,,,,,,,,,,,,,,,,,,,,,,,,,,,,,,,,,,,,,,,,,,,,,",
",,,,,,,,,,,,,,,,,,,,,,,,,,,,,44334455667799009665542211<>>:;=%%%%==&%##+O++$>,,,,,,,,,,,,,,,,,,,,,,,,,,,,,,,,,,,,,,,,,,,,,,,,,,,",
",,,,,,,,,,,,,,,,,,,,,,,,,,,,,33123355667790009665542211<>>:;=====;---=%$#++$=,,,,,,,,,,,,,,,,,,,,,,,,,,,,,,,,,,,,,,,,,,,,,,,,,,,",
",,,,,,,,,,,,,,,,,,,,,,,,,,,,,22113355667790009665542211<<>:-====-:::-==%$++#%,,,,,,,,,,,,,,,,,,,,,,,,,,,,,,,,,,,,,,,,,,,,,,,,,,,",
",,,,,,,,,,,,,,,,,,,,,,,,,,,,,22113355667790009665542211<<<>:---;:::::==&$++#%,,,,,,,,,,,,,,,,,,,,,,,,,,,,,,,,,,,,,,,,,,,,,,,,,,,",
",,,,,,,,,,,,,,,,,,,,,,,,,,,,,42113345667790000765543211<<<>>:>:>:::::==%#++#%,,,,,,,,,,,,,,,,,,,,,,,,,,,,,,,,,,,,,,,,,,,,,,,,,,,",
",,,,,,,,,,,,,,,,,,,,,,,,,,,,,4422224455679000076555442211<<<<>>>::--=&&$#+O#%,,,,,,,,,,,,,,,,,,,,,,,,,,,,,,,,,,,,,,,,,,,,,,,,,,,",
",,,,,,,,,,,,,,,,,,,,,,,,,,,,,4422223455679000076565542211<<<<>>>>;-==%%$#+O+#,,,,,,,,,,,,,,,,,,,,,,,,,,,,,,,,,,,,,,,,,,,,,,,,,,,",
",,,,,,,,,,,,,,,,,,,,,,,,,,,,,4444443355679000097766653311<<<>>:>:;==%$###Ooo+,,,,,,,,,,,,,,,,,,,,,,,,,,,,,,,,,,,,,,,,,,,,,,,,,,,",
",,,,,,,,,,,,,,,,,,,,,,,,,,,,,<<<<112244667799777766443322<<::::;-%%$$##O+oXXo,,,,,,,,,,,,,,,,,,,,,,,,,,,,,,,,,,,,,,,,,,,,,,,,,,,",
",,,,,,,,,,,,,,,,,,,,,,,,,,,,,O>>><<1122555577555555331111>:====%%$%O+++oooXXo,,,,,,,,,,,,,,,,,,,,,,,,,,,,,,,,,,,,,,,,,,,,,,,,,,,",
",,,,,,,,,,,,,,,,,,,,,,,,,,,,,,+###%;;--:><<<<<<>>::;;==%%$$$$####+OOOooX.. ,,,,,,,,,,,,,,,,,,,,,,,,,,,,,,,,,,,,,,,,,,,,,,,,,,,,,",
",,,,,,,,,,,,,,,,,,,,,,,,,,,,,,+$:<<112244555555443311<<:>;;==%%%%##@+ooX.. ,,,,,,,,,,,,,,,,,,,,,,,,,,,,,,,,,,,,,,,,,,,,,,,,,,,,,",
",,,,,,,,,,,,,,,,,,,,,,,,,,,,,33224470qertiiiiiitrewq0874422<<<<>>::==%%$%%%==,,,,,,,,,,,,,,,,,,,,,,,,,,,,,,,,,,,,,,,,,,,,,,,,,,,",
",,,,,,,,,,,,,,,,,,,,,,,,,,,,,<<2244570qetyyyyytrewq09754422<<<<>>::==%%$%%%%#,,,,,,,,,,,,,,,,,,,,,,,,,,,,,,,,,,,,,,,,,,,,,,,,,,,",
",,,,,,,,,,,,,,,,,,,,,,,,,,,,,<<<1225555556677665677652211<<>>::;-==%%$$$$##%=,,,,,,,,,,,,,,,,,,,,,,,,,,,,,,,,,,,,,,,,,,,,,,,,,,,",
",,,,,,,,,,,,,,,,,,,,,,,,,,,,,<<<122455555667766567766532211<<>:::-;==%%$#O@$%,,,,,,,,,,,,,,,,,,,,,,,,,,,,,,,,,,,,,,,,,,,,,,,,,,,",
",,,,,,,,,,,,,,,,,,,,,,,,,,,,,<<1122455555667777797765442222<<<>>:;-==%$$++O##,,,,,,,,,,,,,,,,,,,,,,,,,,,,,,,,,,,,,,,,,,,,,,,,,,,",
",,,,,,,,,,,,,,,,,,,,,,,,,,,,,4422223455679000076565542211<<<<>>>:;;==%%$#+O+#,,,,,,,,,,,,,,,,,,,,,,,,,,,,,,,,,,,,,,,,,,,,,,,,,,,",
",,,,,,,,,,,,,,,,,,,,,,,,,,,,,4444443355679000097766653311<<<>>:::;=&%$###Ooo@,,,,,,,,,,,,,,,,,,,,,,,,,,,,,,,,,,,,,,,,,,,,,,,,,,,",
",,,,,,,,,,,,,,,,,,,,,,,,,,,,,<<<<112244667799777766443322<<::::;;%%$$##O+oXXo,,,,,,,,,,,,,,,,,,,,,,,,,,,,,,,,,,,,,,,,,,,,,,,,,,,",
",,,,,,,,,,,,,,,,,,,,,,,,,,,,,O>>><<1122555577555555331111>>====%%$$+@@OoooXXo,,,,,,,,,,,,,,,,,,,,,,,,,,,,,,,,,,,,,,,,,,,,,,,,,,,",
",,,,,,,,,,,,,,,,,,,,,,,,,,,,,,+###%;;-;:><<<<<<>>::;;==%%$$$$####++OOooX.. ,,,,,,,,,,,,,,,,,,,,,,,,,,,,,,,,,,,,,,,,,,,,,,,,,,,,,",
",,,,,,,,,,,,,,,,,,,,,,,,,,,,,,+$:<<112244555555443311<<::;;==%%%%##++ooX.. ,,,,,,,,,,,,,,,,,,,,,,,,,,,,,,,,,,,,,,,,,,,,,,,,,,,,,",
",,,,,,,,,,,,,,,,,,,,,,,,,,,,,33224470qertiiiiiitrewq0974422<<<<>>::==%%$%%%==,,,,,,,,,,,,,,,,,,,,,,,,,,,,,,,,,,,,,,,,,,,,,,,,,,,",
",,,,,,,,,,,,,,,,,,,,,,,,,,,,,<<2244570qetyyyyytrewq09754422<<<<>>::==%%$%%%%#,,,,,,,,,,,,,,,,,,,,,,,,,,,,,,,,,,,,,,,,,,,,,,,,,,,",
",,,,,,,,,,,,,,,,,,,,,,,,,,,,,<<<1225555556677665677652211<<>>::;;==%%$$$$##%=,,,,,,,,,,,,,,,,,,,,,,,,,,,,,,,,,,,,,,,,,,,,,,,,,,,",
",,,,,,,,,,,,,,,,,,,,,,,,,,,,,<<<122455555667766567766532211<<>:::--==%%$#++$%,,,,,,,,,,,,,,,,,,,,,,,,,,,,,,,,,,,,,,,,,,,,,,,,,,,",
",,,,,,,,,,,,,,,,,,,,,,,,,,,,,2211112234556677777777654421<>>>>>::::-;==$+O+#%,,,,,,,,,,,,,,,,,,,,,,,,,,,,,,,,,,,,,,,,,,,,,,,,,,,",
",,,,,,,,,,,,,,,,,,,,,,,,,,,,,1111112234556679999777654421<>>:>>:>;;==&%$+OOO#,,,,,,,,,,,,,,,,,,,,,,,,,,,,,,,,,,,,,,,,,,,,,,,,,,,",
",,,,,,,,,,,,,,,,,,,,,,,,,,,,,<<<<112234656790999977543211<>>::;;===&%%%O+OOO+,,,,,,,,,,,,,,,,,,,,,,,,,,,,,,,,,,,,,,,,,,,,,,,,,,,",
",,,,,,,,,,,,,,,,,,,,,,,,,,,,,<<<<112234666990999975432111<>>::-====&%%$#+OOOO,,,,,,,,,,,,,,,,,,,,,,,,,,,,,,,,,,,,,,,,,,,,,,,,,,,",
",,,,,,,,,,,,,,,,,,,,,,,,,,,,,<<<<112234668990999977542211<>>::-=====%%$#+OOOO,,,,,,,,,,,,,,,,,,,,,,,,,,,,,,,,,,,,,,,,,,,,,,,,,,,",
",,,,,,,,,,,,,,,,,,,,,,,,,,,,,<<<<112234667990999777552111<>>::-====&%%$#+OOO#,,,,,,,,,,,,,,,,,,,,,,,,,,,,,,,,,,,,,,,,,,,,,,,,,,,",
",,,,,,,,,,,,,,,,,,,,,,,,,,,,,<<<<112234669990999775532211<>>::-====&%%$#+OOO$,,,,,,,,,,,,,,,,,,,,,,,,,,,,,,,,,,,,,,,,,,,,,,,,,,,",
",,,,,,,,,,,,,,,,,,,,,,,,,,,,,<<<<112244679990997765432111<>>::;=====%%$O+OOO$,,,,,,,,,,,,,,,,,,,,,,,,,,,,,,,,,,,,,,,,,,,,,,,,,,,",
",,,,,,,,,,,,,,,,,,,,,,,,,,,,,<<<<113355679990997765432211<<>::;=====%%$@+OOO+,,,,,,,,,,,,,,,,,,,,,,,,,,,,,,,,,,,,,,,,,,,,,,,,,,,",
",,,,,,,,,,,,,,,,,,,,,,,,,,,,,1111224566679990997766542211<<>::;====&%%$++OOO$,,,,,,,,,,,,,,,,,,,,,,,,,,,,,,,,,,,,,,,,,,,,,,,,,,,",
",,,,,,,,,,,,,,,,,,,,,,,,,,,,,1111334555679990997766542211<<>:::;;==&%%$++OoO+,,,,,,,,,,,,,,,,,,,,,,,,,,,,,,,,,,,,,,,,,,,,,,,,,,,",
",,,,,,,,,,,,,,,,,,,,,,,,,,,,,4422223455679000076565542211<<<<>>>:-;==%%$#+O+#,,,,,,,,,,,,,,,,,,,,,,,,,,,,,,,,,,,,,,,,,,,,,,,,,,,",
",,,,,,,,,,,,,,,,,,,,,,,,,,,,,4444443355679000097766653311<<<>>:::-=&%$###Ooo+,,,,,,,,,,,,,,,,,,,,,,,,,,,,,,,,,,,,,,,,,,,,,,,,,,,",
",,,,,,,,,,,,,,,,,,,,,,,,,,,,,<<<<112244667799777766443322<<::::;;%%$$##O+oXXo,,,,,,,,,,,,,,,,,,,,,,,,,,,,,,,,,,,,,,,,,,,,,,,,,,,",
",,,,,,,,,,,,,,,,,,,,,,,,,,,,,O>>:<<1122555577555555331111>>====%%$$++++oooXXo,,,,,,,,,,,,,,,,,,,,,,,,,,,,,,,,,,,,,,,,,,,,,,,,,,,",
",,,,,,,,,,,,,,,,,,,,,,,,,,,,,,+###%;;-;>><<<<<<>:::-;==&%$$$$####++OOooX.. ,,,,,,,,,,,,,,,,,,,,,,,,,,,,,,,,,,,,,,,,,,,,,,,,,,,,,",
",,,,,,,,,,,,,,,,,,,,,,,,,,,,,,+$:<<112244555555443311<<>:;;==%%&%##++ooX.. ,,,,,,,,,,,,,,,,,,,,,,,,,,,,,,,,,,,,,,,,,,,,,,,,,,,,,",
",,,,,,,,,,,,,,,,,,,,,,,,,,,,,33224470qertiiiiiitrewq0974422<<<<>:::==%%$%%%==,,,,,,,,,,,,,,,,,,,,,,,,,,,,,,,,,,,,,,,,,,,,,,,,,,,",
",,,,,,,,,,,,,,,,,,,,,,,,,,,,,<<2244570qetyyyyytrewq09754422<<<<:>::==%%$%%%%#,,,,,,,,,,,,,,,,,,,,,,,,,,,,,,,,,,,,,,,,,,,,,,,,,,,",
",,,,,,,,,,,,,,,,,,,,,,,,,,,,,<<<1225555556677665677652211<<>>::;;==%%$$$$##%=,,,,,,,,,,,,,,,,,,,,,,,,,,,,,,,,,,,,,,,,,,,,,,,,,,,",
",,,,,,,,,,,,,,,,,,,,,,,,,,,,,<<<122455555667766567766532211<<>:::;;==%%$#++$%,,,,,,,,,,,,,,,,,,,,,,,,,,,,,,,,,,,,,,,,,,,,,,,,,,,",
",,,,,,,,,,,,,,,,,,,,,,,,,,,,,<<<<112244667799777666443322<<::::;-%%$$##O+oXXo,,,,,,,,,,,,,,,,,,,,,,,,,,,,,,,,,,,,,,,,,,,,,,,,,,,",
",,,,,,,,,,,,,,,,,,,,,,,,,,,,,O>>:<<1122555577555555331111>>====%%$%O+++oooXXo,,,,,,,,,,,,,,,,,,,,,,,,,,,,,,,,,,,,,,,,,,,,,,,,,,,",
",,,,,,,,,,,,,,,,,,,,,,,,,,,,,,+###%-;-;>><<<<<<>>::;;==%&$$$$####@OOOooX.. ,,,,,,,,,,,,,,,,,,,,,,,,,,,,,,,,,,,,,,,,,,,,,,,,,,,,,",
",,,,,,,,,,,,,,,,,,,,,,,,,,,,,,+$:<<112244555555443311<<>:--==%%%%##@+ooX.. ,,,,,,,,,,,,,,,,,,,,,,,,,,,,,,,,,,,,,,,,,,,,,,,,,,,,,",
",,,,,,,,,,,,,,,,,,,,,,,,,,,,,33224470qertiiiiiitrewq0974422<<<<>>::==%%$%%%==,,,,,,,,,,,,,,,,,,,,,,,,,,,,,,,,,,,,,,,,,,,,,,,,,,,",
",,,,,,,,,,,,,,,,,,,,,,,,,,,,,<<2244570qetyyyyytrrwq08754422<<<<>>::==%%$%%%%#,,,,,,,,,,,,,,,,,,,,,,,,,,,,,,,,,,,,,,,,,,,,,,,,,,,",
",,,,,,,,,,,,,,,,,,,,,,,,,,,,,<<<1225555556677665677652211<<>>::;;==%%$$$$##%=,,,,,,,,,,,,,,,,,,,,,,,,,,,,,,,,,,,,,,,,,,,,,,,,,,,",
",,,,,,,,,,,,,,,,,,,,,,,,,,,,,<<<122455555667766567766532211<<>:::--==%%$#++$%o,,,,,,,,,,,,,,,,,,,,,,,,,,,,,,,,,,,,,,,,,,,,,,,,,,",
",,,,,,,,,,,,,,,,,,,,,,,,,,,,q4422224455679000065555442211<<<<>>>::--=&%$#++++oo,,,,,,,,,,,,,,,,,,,,,,,,,,,,,,,,,,,,,,,,,,,,,,,,,",
",,,,,,,,,,,,,,,,,,,,,,,,,,qqe4422223455679000075565542211<<<<>>>>--==%%$#++++oooo,,,,,,,,,,,,,,,,,,,,,,,,,,,,,,,,,,,,,,,,,,,,,,,",
",,,,,,,,,,,,,,,,,,,,,,,,qqreq0644443355679000097766653311<<<>>:>:;==%$###O++oooOOoo,,,,,,,,,,,,,,,,,,,,,,,,,,,,,,,,,,,,,,,,,,,,,",
",,,,,,,,,,,,,,,,,,,,,6qqtteqq9854444355679000097766653311<<<>::::==&%###+OOooXXooOOoo,,,,,,,,,,,,,,,,,,,,,,,,,,,,,,,,,,,,,,,,,,,",
",,,,,,,,,,,,,,,,,,,44qtterqqqq997744666770000097777653211<>>:-=-=%%%$#+OOooo..X.XooOOoo,,,,,,,,,,,,,,,,,,,,,,,,,,,,,,,,,,,,,,,,,",
",,,,,,,,,,,,,,,,,,,4>4qeeqq009900007666660000097777552211>>::====%%$+++OOoX.....XXoOo.o,,,,,,,,,,,,,,,,,,,,,,,,,,,,,,,,,,,,,,,,,",
",,,,,,,,,,,,,,,,,,,1>>49qq00000qqqqw0009900999766552211<<>>:-==%%$$++OOooXX......XoX. o@@####&&&&&&&&;,,,,,,,,,,,,,,,,,,,,,,,,,,",
",,,,,,,,,,,,,,,,,,,1>><26000000qqqwewrreew0997766552211<<>:--==%%$$++OOooXX.....Xo.   o@@@@##&&&&&&&&;;;;,,,,,,,,,,,,,,,,,,,,,,,",
",,,,,,,,,,,,,,,,,,,1>><12579900qwrrrruuuutrqq0099774411>>::;-==%%$$#+++OOXX.....      oOOOO@@######&&&&&;;;,,,,,,,,,,,,,,,,,,,,,",
",,,,,,,,,,,,,,,,,,,1>><12359900qwrrrruuuuytqq0099774411>>::;-==%%$$##++OOXX...        oOOOO@@@#####&&&&&&;;;,,,,,,,,,,,,,,,,,,,,",
",,,,,,,,,,,,,,,,,,,1>><12345799qqwerrttyyytqq0099774411>:::--==%%%%%%$$+OoXX.         oOOOOOOO@@@#####&&&&&&&,,,,,,,,,,,,,,,,,,,",
",,,,,,,,,,,,,,,,,,,3>><1234556999qqrrttyytrqq0099774411>>::--==%%%%%%$$+OoXX.        .oOOOOOOOO@@######&&&&&&,,,,,,,,,,,,,,,,,,,",
",,,,,,,,,,,,,,,,,,,,2><123455679999qqerrtrrwwqq99774411>><<::::-;====$$+OoXX.       .oOOOOOOOOO@@######&&&&&&,,,,,,,,,,,,,,,,,,,",
",,,,,,,,,,,,,,,,,,,,,1<123455679999qqqqeerrwwqq99774411>><<::::--====$$+OoXX.     .ooOOOOOOOOOO@@#####&&&&;&&,,,,,,,,,,,,,,,,,,,",
",,,,,,,,,,,,,,,,,,,,,,>22345560099900qqqq00000077552211<<>:::;-====%%$$+OoXX.   .ooOOOOOOOO@@@@@#####&&&&&&;,,,,,,,,,,,,,,,,,,,,",
",,,,,,,,,,,,,,,,,,,,,,,,1345567999900qqqq00000077552211<<>>::;-====%%$$+OoXX...ooOOOOOOOOO@@@@@#####&&&&;&&,,,,,,,,,,,,,,,,,,,,,",
",,,,,,,,,,,,,,,,,,,,,,,,,,25567990000qqqqqq0000774411>>>>::;-==%%%%$$##OOOX..OOOOOO@@@@@@########&&&&&&;;;,,,,,,,,,,,,,,,,,,,,,,",
",,,,,,,,,,,,,,,,,,,,,,,,,,,,255779900qqqqqq0000774411>>>:::;-==%%%%$$##OOOOOOO@@@@@#######&&&&&&&&&&;;&;;,,,,,,,,,,,,,,,,,,,,,,,",
",,,,,,,,,,,,,,,,,,,,,,,,,,,,,,,32255779900q00775544<<::::--==%%%%%%%%%##++O@@@@##&&&&&&&&;;;;;;;;;;;;;;;,,,,,,,,,,,,,,,,,,,,,,,,",
",,,,,,,,,,,,,,,,,,,,,,,,,,,,,,,,,,355qqqqqq00775544<<::::--==%%%%%%%%OOOOOO@@@@##&&&&&&&&;;;;;;;;;;;;,,,,,,,,,,,,,,,,,,,,,,,,,,,"
};
