/* XPM */
static char *_583853667943[] = {
/* columns rows colors chars-per-pixel */
"32 32 6 1 ",
"  c #CFB57E",
". c #D3BF8A",
"X c #D7CA97",
"o c #E0D7A3",
"O c #E4E0AD",
"+ c #EAE7BD",
/* pixels */
"Oo.oX oX XoX.oXo+OoX.ooXoX.oXo.o",
"X.oXoXX o.X o. Xo X.o..o +OX+ XO",
"OoXoXo+o Xo.Xo.oXo.o.oX.X.X.o.o.",
" O.X Xo.O. X .XXoXOX +oX o X.o.X",
"o.XoXoOXoXXo.o.oX..XoX.oOXO.Xo .",
"+XoXoXo.O+o.o oXoXo.o.oO.Oo. XO+",
" .o.oOoX.XO.Xo .Xo.X .X o.XOo OX",
"X.oX oXoX.oXoX.Xo+o.oXoXoX.X.X+ ",
"oX.o.X.XOXXo.oOoX. XO.X.X.o. oX.",
".X.oXoX.o..Xo. X+o.oXoX .+X.OO.X",
"XoX.o +oXoX .oXo.XoX X.ooXoO oX.",
"oXoX.X.XoXoXo.oXX.XoXo X.o .X.O ",
".X oXoX.XoX.XoOX+ oX oX.O.oXXOX+",
"XoXO.X.X.X.Xo.X.oXXoX.oOX X OXo.",
" .oXo.oX.oXoXo X.Xo.OXo.X.XoXX.o",
".X oXoX.o.oXo.o.O XOoXoOXXoXo+OX",
"XOo oX.o.X.oXOX X. X.o.XooXoX.X.",
"o.XOXoX. .oXOo.o.oX.O.XoX X.oX.X",
"Xo..oXoXo+oX.XoXoXoXoX+XoXoX .X.",
"OXX.Xo.oXoX.XoXo.oXo.oX.oXoX.X.O",
"o oXo.oXoXoXoX.XXO.X X.XooXoXo.O",
"XoXoXOX+XoXo+oX. X .O.XoXX. .XO.",
"oXo+oX.ooXo.X.o+X.oX o+X .X.Xo.X",
"X.O.X.oOX.XoXo.oX+oX .XoXO.XoXo ",
"OXoXOXOo.XoXoXX.o.Xo.XoXooXoXo.o",
".X.+.o.Xo XoO.XoXoXO X.o.OOXXoX ",
"X.OXoXXo.o .oXo.oXOo+oX.oXo oXoo",
"X oXo . Xo.X.oO.Xo+oOo .oXoo.oXo",
".X oX.XoOXoXoXoX .oX.X.XOoX.X+XX",
"oo.O.Xo .OX..XoXo.X.o+Xo.o. oX.o",
"X.X.X X.X. XooXoXXoXXo.XXX X.O X",
".o.X.X.o.oXo.X.X+Xo.o.Xo+oXoXoO."
};
