/* XPM */
static char *_587412997537[] = {
/* columns rows colors chars-per-pixel */
"128 128 63 1 ",
"  c #980088",
". c #377B00",
"X c #476700",
"o c #00C300",
"O c #079B00",
"+ c #2B1700",
"@ c #07A700",
"# c #3F3300",
"$ c #178F00",
"% c #4B4300",
"& c #372300",
"* c #535300",
"= c #4F5F00",
"- c #230B00",
"; c #3F7300",
": c #07B700",
"> c #278700",
", c #070000",
"< c #1B0700",
"1 c #00AB00",
"2 c #00DF00",
"3 c #00D300",
"4 c #0F0000",
"5 c gray23",
"6 c #00EF00",
"7 c #57FF57",
"8 c #4B4B4B",
"9 c gray34",
"0 c gray45",
"q c gray50",
"w c gray67",
"e c #B7B7B7",
"r c #9B9B9B",
"t c gray56",
"y c LightGray",
"u c #676767",
"i c #C3C3C3",
"p c #DFDFDF",
"a c white",
"s c #EFEFEF",
"d c #777700",
"f c #6B6B00",
"g c #5F5F00",
"h c #4F4F00",
"j c #9F9F00",
"k c #878700",
"l c #BBBB00",
"z c #E3E300",
"x c #939300",
"c c #D7D700",
"v c #434300",
"b c yellow",
"n c #373700",
"m c #000001",
"M c #232323",
"N c #AFAF00",
"B c #C7C700",
"V c #FFFF57",
"C c #EFEF00",
"Z c #5B5B5B",
"A c #434343",
"S c #2F2F2F",
"D c black",
/* pixels */
"                                                                                                                                ",
"                                                                                                                                ",
"                                                                                                                                ",
"                                                                                                                                ",
"                                                                                                                                ",
"                                                                                                                                ",
"                                                                                                                                ",
"                                                                                                                                ",
"                                                                                                                                ",
"                                                                                                                                ",
"                                                                                                                                ",
"                                                                                                                                ",
"                                                                                                                                ",
"                                                                                                                                ",
"                                                                                                                                ",
"                                                                                                                                ",
"                                                                                                                                ",
"                                                                                                                                ",
"                                                                                                                                ",
"                                                                                                                                ",
"                                                                                                                                ",
"                                               ..X                                                                              ",
"                                              .oOo+                                                                             ",
"                                              .@O@+                                                                             ",
"                                             ##X$X+#                                                                            ",
"                                            %#&%X+++# *==                                                                       ",
"                                            %& ----++*;o:*XX                                                                    ",
"                                            % #-### +;o:@*>>X                                                                   ",
"                                             #+#X.X%%=@>.XX>>                                                                   ",
"                                         X.= #+*.O@O%**X..XX>*                                                                  ",
"                                        >::.&,,*X.:@%%**.oo$*#*                                                                 ",
"                                       =::.&&,=**X..=%##XO@$*&%                                                                 ",
"                                      %>>=&--$@=&#%**#+<#*.=< &                                                                 ",
"                                     %#& &&-Xo$&&##++++<<##<<                                                                   ",
"                                     #& #---..=%%+###<*;;*,                                                                     ",
"                                   XX**##----,,=>*#%#*;11;*=*                                                                   ",
"                                  $..@o.#;:$*%=>@>+#<=OooO=11*      -##                                                         ",
"                              *>>> .@oo.;:2$*%=>@>+<<=>::>=>1>* %  #%**X=                                                       ",
"                             .:33>#$O@$#O23X#&%=>*<##&X>>=#=>.=.=++#**X$$=                                                      ",
"                            *O>=%%*$$;;#O3@&-+%==<&*%&#;X#&&==$@.%##,#X$$;                                                      ",
"                            *;%*>%.*#>1*>X#XO@o>%<%&,,,++44&&%.$@=#;=#*.$X                                                      ",
"                            ;%*$>*1.*1>*##-Oo:2:><<*;*,+&#&&&%=..%&=;##X.%                                                      ",
"                            ;#*O>#*X*=*#-4#@2:22>%%@@$+,%*#,,&&%=++&%&,                                                         ",
"                             +=>=-##*##-#*4>2:2o>@>@@;+,=%&%%&&--++++,,                                                         ",
"                               =+55,XOo.=#,-$@o>*21>.$$*%,%.O.*-+--#%=%+&#                                                      ",
"                               ==55Oo66:.,*=*@>*&>1#$11.+,%.OO.+---%=;=++&#                                                     ",
"                             +=;1=>o666:O@@>X**&,&X-=11*#++%..=# +<+#%% --&                                                     ",
"                             +X>o@>6oOX##@OXX##,,-&-#*;##++,%X;#+%#+%%=% --  &%%%                                               ",
"                            *X.Oo@=;==&X..XXX>1..>=--++#%==+=::=#=*%+#%%    &%**X#                                              ",
"                           *X$.O1=,&&&&1.XXX*1>.@o:=-++%...+=OO=,<#%,+&&   ++--#*=#                                             ",
"                          **>>.>;%=X.X..&*>O>**.o@3O=<<$1>><#==&&,,<<<<#4,,&  <--##                                             ",
"                         ***.;*&%O$OO.X&&>:@O;;=.33@=<<$1>=<<#%&&*X&<#==4,&+&    ++                                             ",
"                         55*;%&%O>22.**.3o@:>:3O#;@;*#+==*-##&++&X*#,=.=-  &+                                                   ",
"                       X>55%%&&*$o2:.*.:@3o>.3:O*<;;.=+++--#%++++<##,;;#-   &                                                   ",
"                      XO;%%&&<<.;@:;%&.:3o3>=OOOX##.1.<,#*%44++%%#+<<+%XX%+                                                     ",
"                      >;%%%&*.=..;X%+&&O:33$=#*X%#%X.X<#==#X.*+%XX%<<++*XX+##                                                   ",
"                      >%%% X.=&&&#&++#&%=>OO*<<##XX#X##*%#X$$*4#X;X%&+++%X#X*#                                                  ",
"                      .%*  .=%&%%##=+&&#%***%#*X=>>*+#===+*$$#4+#XX%%+ +  #XX%                                                  ",
"                       *   =&X.=Oo@##,&+++&&#=;X*>1*+,=OO==*#,,44<<&&++,+ +<*%                                                  ",
"                            &.XOoo@##%%=+++&*;;=+*>#+,=OO>=++,,44<%%&++,+++ <#                                                  ",
"                          X$$*&@o@=%O1>*=.X%==*55++X$X,=.>#,,&&,,+%XX<<--<<                                                     ",
"                         XOO.&&@@;=O1O$%%..X,++55+%$1$%#==#,&##,,+%XX<  -<<                                                     ",
"                         >O.*,,==,X1$..<<,%X5++,,+%$1.%--&&,,&#<<&&++, --<    <%%                                               ",
"                        =>.*&,,++,X>..*<***55++**++=$=5--&&,,,,#==&++,,--<<  <#*==                                              ",
"                        ==*#,#&++5=.*%&>:O*,,+*1OX+,;55 +XX&&<#>O=<++<<  <<,, #*=*%                                             ",
"                        =* ## &+&55%%&;:3;+,,+XO1.+,,55+X11X&<XOO%<#**<<  <    ##%%                                             ",
"                              && &&=.=;O;=;5555.$==..55 X>>X&+XX%=%%X>=<<        <<                                             ",
"                              &  &=11=&*=>O>555==>>..55 %==%&+++%..%*=><<                                                       ",
"                                 &.=%;>XO$7o=55=O:6$.55& %%++%%#%$.%<,* <<                                                      ",
"                                 &%%=>=>O@7o>55=O77@.55&& ,+#*#&,.=<   <<<<                                                     ",
"                               *%5%*&**Ooo2o>++  oo@555&& XX%%+  <<    <<,,                                                     ",
"                              X>=55&;;&.OooO.++  558855 &.OO.%+  <      <,,                                                     ",
"                             =>.X&&@3>&*.OO>X++  589985  %.OO;           <<                                                     ",
"                             X>;*&=3@=&**..X*++  589985   %.1;            <                                                     ",
"                             X.X* ===   *==*+    590008     *                                                                   ",
"                             XX**  &&      ++    900qq8                                                                         ",
"                             ***                 90wer9                                                                         ",
"                             **                  qteyw9                                                                         ",
"                                                 00qee9                                                                         ",
"                                                 uuqrwu                                                                         ",
"                                                 9u0qt08                                                                        ",
"                                                 9u0qt09                                                                        ",
"                                                 9u0qt09                                                                        ",
"                                                 9uqqtqu                                                                        ",
"                                                 9urrwwu                                                                        ",
"                                                 9qrrwwq                                                                        ",
"                                                 9teeywwq                                                                       ",
"                                                 qeeeyiiwq                                                                      ",
"                                                 qeppypyiw0                                                                     ",
"                                                 tippasssi0                                                                     ",
"                                                 qessasspw0                                                                     ",
"                                                 qepsasywt0                                                                     ",
"                                                 tiysase00                                                                      ",
"                                                 teysase0                                                                       ",
"                                                 tiysasw0                                                                       ",
"                                                 qiysase0                                                                       ",
"                                                 qeysasit                                                                       ",
"                                                 qeysaait                                                                       ",
"                                                 qeysasit                                                                       ",
"                                                 qipsaswt9                                                                      ",
"                                                 tipsasetu                                                                      ",
"                                                 tiysapytu                                                                      ",
"                                                 qeyssypr09                                                                     ",
"                                                 qeyssyprt9                                                                     ",
"                                         ddddddddteyssypwtudddfffgggh                                                           ",
"                                       jjjjjjjjjjtiysspyrtudkkdddddgggh                                                         ",
"                                     lzzlxdddfffgqepsspyrtu9ggggghhhggghh                                                       ",
"                                    lzzcldhvvvvvvtepsspywr09vvvvvvvvvhgghh                                                      ",
"                                   xzbbldnnmmmmmmqwyppyiwr09MMnnnnnnnvggghn                                                     ",
"                                   Nzaaldnmmmmmmmtqiyeiewt08mmMMMMMnnvgggvn                                                     ",
"                                   Nzaablhmmmmmmmqqwtrrrrq05mmmmmmmnvggghvn                                                     ",
"                                   xBbaabNfnnmmmmqqtqrtrqq05mmmmmnnvhgghvnn                                                     ",
"                                    jzzzzVVCCzzccBBlNjkddkdfgggffghhhhhvvn                                                      ",
"                                     kNczaaaaVVaaVVCcBBNlNxddddddfghhvvnn                                                       ",
"                                     fdkxjNNNNNNNjjxxxkdddggghhhvvvvnnnnn                                                       ",
"                                     fkddffgghhhhvvvvvvnnnnnnnnnnnnnnvvnn                                                       ",
"                                     kjBlNjxxkkddffgghhhhvvvvvvvvvvvvvvnn                                                       ",
"                                     kjBBllNjxxkdddfffggghhhhvvvvvhhhvvnn                                                       ",
"                                     kjBCbCzcBlNNjxxkkdffggghhhhhhgghvvnn                                                       ",
"                                     kjBCbbCCzzccBBlNNjxkddfghhhhggghvvnn      uu    uuuu  uuuu                                 ",
"                                     kjBCbbCCzzccBBlNNjxkkddfghhhggghvvnn88888888ZZZZZZZZZZuZ88Zu                               ",
"                                     kjBCbbCCzzccBBlNNjxkkddfghhhggghvvnnAAAAAAAA88A8A88ZZZuuuuuu  uu                           ",
"                                     djBCbbCCzzccBBlNNjxkkddfghhhggghvvnnSS5555555555555AA888Z888Z88Zuu                         ",
"                                     djlCbbCCzzccBBlNNjxkkddfghhhggghvvnnSSSSSSSSSSSSSSS555AA8ZZZZuZuZu                         ",
"                                      xNzCbCCzzccBllNNjxkkddfghhhggghvnnSmmSSSSSSSSSSSSSS5SS5AA88AAA8uZuu                       ",
"                                      djBczCCzzcBllNNjxxkddfgghhhgghhvn5mmmSSSSSSSSSSSSSSS5AAAA8A8A8uuuuu                       ",
"                                       dxjjNNNNNjxxxxkkkddfgghhhhhhvvn5SSSSSSSSSSSSSSSS55ASSSS5AZuu                             ",
"                                         dkkxxxxkkkkdddffghhhhhvvvvnn5SSSSSSSSSSSSS5555AAAA8888888ZZ                            "
};
